<svg width="647" height="980" viewBox="0 0 647 980" fill="none" xmlns="http://www.w3.org/2000/svg">
<path d="M187.931 478.173H189.932V425.491C189.932 417.404 193.274 409.649 199.223 403.931C205.172 398.212 213.24 395 221.653 395H337.771C341.937 395 346.062 395.789 349.91 397.321C353.759 398.853 357.256 401.099 360.202 403.931C363.147 406.762 365.484 410.123 367.078 413.822C368.672 417.522 369.493 421.487 369.493 425.491V714.509C369.493 718.513 368.672 722.478 367.078 726.177C365.484 729.877 363.147 733.238 360.202 736.069C357.256 738.901 353.759 741.147 349.911 742.679C346.062 744.211 341.937 745 337.771 745H221.653C217.488 745 213.363 744.211 209.514 742.679C205.665 741.147 202.168 738.901 199.223 736.069C196.277 733.238 193.941 729.877 192.347 726.178C190.752 722.478 189.932 718.513 189.932 714.509V515.673H187.931V478.173Z" fill="#3E489A"/>
<path d="M220.612 403.654H235.769C235.072 405.297 234.806 407.079 234.995 408.844C235.183 410.608 235.82 412.301 236.849 413.774C237.879 415.246 239.269 416.453 240.898 417.287C242.527 418.121 244.344 418.558 246.19 418.558H312.712C314.558 418.558 316.375 418.121 318.004 417.287C319.633 416.453 321.023 415.246 322.052 413.774C323.082 412.301 323.719 410.608 323.907 408.844C324.096 407.079 323.829 405.297 323.132 403.654H337.289C343.572 403.654 349.598 406.053 354.04 410.323C358.483 414.593 360.979 420.385 360.979 426.424V715.018C360.979 718.008 360.366 720.969 359.175 723.732C357.985 726.495 356.24 729.005 354.04 731.119C351.84 733.234 349.229 734.911 346.355 736.055C343.481 737.2 340.4 737.789 337.289 737.789H220.612C214.329 737.789 208.304 735.39 203.861 731.119C199.419 726.849 196.923 721.057 196.923 715.018V426.424C196.923 423.434 197.536 420.473 198.726 417.71C199.917 414.948 201.662 412.438 203.861 410.323C206.061 408.209 208.673 406.532 211.547 405.387C214.421 404.243 217.501 403.654 220.612 403.654H220.612ZM223.159 537.535C223.163 539.097 223.811 540.595 224.961 541.7C226.111 542.805 227.669 543.428 229.295 543.433H258.952C260.578 543.428 262.136 542.805 263.285 541.7C264.435 540.595 265.083 539.097 265.088 537.535V536.06C265.083 534.497 264.435 533 263.285 531.895C262.136 530.789 260.578 530.167 258.952 530.162H229.295C227.669 530.167 226.111 530.789 224.961 531.895C223.811 533 223.163 534.497 223.159 536.06V537.535ZM219.835 511.485C219.84 513.048 220.488 514.545 221.637 515.651C222.787 516.756 224.345 517.379 225.971 517.383H332.328C333.954 517.379 335.512 516.756 336.661 515.651C337.811 514.545 338.459 513.048 338.464 511.485V510.011C338.459 508.448 337.811 506.95 336.661 505.845C335.512 504.74 333.954 504.117 332.328 504.113H225.971C224.345 504.117 222.787 504.74 221.637 505.845C220.488 506.95 219.84 508.448 219.835 510.011V511.485ZM219.835 485.436C219.84 486.999 220.488 488.496 221.637 489.601C222.787 490.706 224.345 491.329 225.971 491.334H332.328C333.954 491.329 335.512 490.706 336.661 489.601C337.811 488.496 338.459 486.999 338.464 485.436V483.961C338.459 482.398 337.811 480.901 336.661 479.796C335.512 478.691 333.954 478.068 332.328 478.063H225.971C224.345 478.068 222.787 478.691 221.637 479.796C220.488 480.901 219.84 482.398 219.835 483.961V485.436ZM219.835 459.386C219.84 460.949 220.488 462.447 221.637 463.552C222.787 464.657 224.345 465.28 225.971 465.284H332.328C333.954 465.28 335.512 464.657 336.661 463.552C337.811 462.447 338.459 460.949 338.464 459.386V457.912C338.459 456.349 337.811 454.851 336.661 453.746C335.512 452.641 333.954 452.018 332.328 452.014H225.971C224.345 452.018 222.787 452.641 221.637 453.746C220.488 454.851 219.84 456.349 219.835 457.912V459.386Z" fill="white"/>
<path d="M330.027 514.435C328.05 514.435 326.448 512.894 326.448 510.994C326.448 509.094 328.05 507.554 330.027 507.554C332.004 507.554 333.606 509.094 333.606 510.994C333.606 512.894 332.004 514.435 330.027 514.435Z" fill="white"/>
<path d="M318.266 514.435C316.289 514.435 314.687 512.894 314.687 510.994C314.687 509.094 316.289 507.554 318.266 507.554C320.243 507.554 321.845 509.094 321.845 510.994C321.845 512.894 320.243 514.435 318.266 514.435Z" fill="white"/>
<path d="M306.506 514.435C304.529 514.435 302.926 512.894 302.926 510.994C302.926 509.094 304.529 507.554 306.506 507.554C308.482 507.554 310.085 509.094 310.085 510.994C310.085 512.894 308.482 514.435 306.506 514.435Z" fill="white"/>
<path d="M294.745 514.435C292.768 514.435 291.166 512.894 291.166 510.994C291.166 509.094 292.768 507.554 294.745 507.554C296.722 507.554 298.324 509.094 298.324 510.994C298.324 512.894 296.722 514.435 294.745 514.435Z" fill="white"/>
<path d="M256.395 540.483C254.418 540.483 252.816 538.943 252.816 537.043C252.816 535.143 254.418 533.602 256.395 533.602C258.372 533.602 259.975 535.143 259.975 537.043C259.975 538.943 258.372 540.483 256.395 540.483Z" fill="white"/>
<path d="M244.635 540.483C242.658 540.483 241.055 538.943 241.055 537.043C241.055 535.143 242.658 533.602 244.635 533.602C246.611 533.602 248.214 535.143 248.214 537.043C248.214 538.943 246.611 540.483 244.635 540.483Z" fill="white"/>
<path d="M232.874 540.483C230.897 540.483 229.295 538.943 229.295 537.043C229.295 535.143 230.897 533.602 232.874 533.602C234.851 533.602 236.453 535.143 236.453 537.043C236.453 538.943 234.851 540.483 232.874 540.483Z" fill="white"/>
<path d="M219.012 581.621H340.309C343.159 581.621 345.892 582.709 347.907 584.646C349.922 586.583 351.054 589.21 351.054 591.949V648.755C351.054 651.494 349.922 654.121 347.907 656.058C345.892 657.995 343.159 659.083 340.309 659.083H219.012C216.163 659.083 213.43 657.995 211.415 656.058C209.399 654.121 208.267 651.494 208.267 648.755V591.949C208.267 589.21 209.399 586.583 211.415 584.646C213.43 582.709 216.163 581.621 219.012 581.621H219.012ZM343.31 588.666C343.071 588.625 337.391 587.696 332.688 590.416C327.985 593.136 326.178 598.395 326.104 598.617L325.914 599.184L326.524 599.288C327.395 599.419 328.275 599.481 329.156 599.474C331.952 599.526 334.71 598.857 337.147 597.538C341.85 594.819 343.656 589.56 343.731 589.338L343.921 588.77L343.31 588.666ZM316.98 641.407H338.614C340.192 641.407 341.706 640.805 342.821 639.732C343.937 638.66 344.564 637.205 344.564 635.689C344.564 634.172 343.937 632.717 342.821 631.645C341.706 630.573 340.192 629.97 338.614 629.97H316.98C315.402 629.97 313.889 630.573 312.773 631.645C311.657 632.717 311.031 634.172 311.031 635.689C311.031 637.205 311.657 638.66 312.773 639.732C313.889 640.805 315.402 641.407 316.98 641.407ZM218.544 640.368C218.549 642.021 219.234 643.605 220.45 644.774C221.666 645.943 223.314 646.601 225.034 646.606H241.26C242.98 646.601 244.628 645.943 245.844 644.774C247.06 643.605 247.745 642.021 247.75 640.368V631.01C247.745 629.357 247.06 627.773 245.844 626.604C244.628 625.435 242.98 624.776 241.26 624.771H225.034C223.314 624.776 221.666 625.435 220.45 626.604C219.234 627.773 218.549 629.357 218.544 631.01L218.544 640.368Z" fill="#FFBFD6"/>
<path d="M236.028 638.439H242.552C243.018 638.439 243.465 638.617 243.794 638.933C244.124 639.25 244.309 639.679 244.309 640.127C244.309 640.575 244.124 641.004 243.794 641.321C243.465 641.638 243.018 641.815 242.552 641.815H236.028C235.562 641.815 235.116 641.638 234.786 641.321C234.457 641.004 234.272 640.575 234.272 640.127C234.272 639.679 234.457 639.25 234.786 638.933C235.116 638.617 235.562 638.439 236.028 638.439Z" fill="#AA83FF"/>
<path d="M223.984 638.439H230.508C230.974 638.439 231.421 638.617 231.75 638.933C232.079 639.25 232.264 639.679 232.264 640.127C232.264 640.575 232.079 641.004 231.75 641.321C231.421 641.638 230.974 641.815 230.508 641.815H223.984C223.518 641.815 223.071 641.638 222.742 641.321C222.413 641.004 222.228 640.575 222.228 640.127C222.228 639.679 222.413 639.25 222.742 638.933C223.071 638.617 223.518 638.439 223.984 638.439Z" fill="#AA83FF"/>
<path d="M236.029 633.673H242.553C243.019 633.673 243.466 633.851 243.795 634.168C244.125 634.484 244.31 634.914 244.31 635.361C244.31 635.809 244.125 636.239 243.795 636.555C243.466 636.872 243.019 637.05 242.553 637.05H236.029C235.563 637.05 235.117 636.872 234.787 636.555C234.458 636.239 234.273 635.809 234.273 635.361C234.273 634.914 234.458 634.484 234.787 634.168C235.117 633.851 235.563 633.673 236.029 633.673Z" fill="#AA83FF"/>
<path d="M223.985 633.673H230.509C230.975 633.673 231.422 633.851 231.751 634.168C232.08 634.484 232.265 634.914 232.265 635.361C232.265 635.809 232.08 636.239 231.751 636.555C231.422 636.872 230.975 637.05 230.509 637.05H223.985C223.519 637.05 223.072 636.872 222.743 636.555C222.414 636.239 222.229 635.809 222.229 635.361C222.229 634.914 222.414 634.484 222.743 634.168C223.072 633.851 223.519 633.673 223.985 633.673H223.985Z" fill="#AA83FF"/>
<path d="M236.029 629.003H242.553C243.019 629.003 243.466 629.181 243.795 629.498C244.125 629.814 244.31 630.244 244.31 630.692C244.31 631.139 244.125 631.569 243.795 631.885C243.466 632.202 243.019 632.38 242.553 632.38H236.029C235.563 632.38 235.117 632.202 234.787 631.885C234.458 631.569 234.273 631.139 234.273 630.692C234.273 630.244 234.458 629.814 234.787 629.498C235.117 629.181 235.563 629.003 236.029 629.003Z" fill="#AA83FF"/>
<path d="M223.985 629.003H230.509C230.975 629.003 231.422 629.181 231.751 629.498C232.08 629.814 232.265 630.244 232.265 630.692C232.265 631.139 232.08 631.569 231.751 631.885C231.422 632.202 230.975 632.38 230.509 632.38H223.985C223.519 632.38 223.072 632.202 222.743 631.885C222.414 631.569 222.229 631.139 222.229 630.692C222.229 630.244 222.414 629.814 222.743 629.498C223.072 629.181 223.519 629.003 223.985 629.003H223.985Z" fill="#AA83FF"/>
<path d="M115 616.838H140.002V641.838H115V616.838Z" fill="#E6E6E6"/>
<path d="M170 589H127V632H170V589ZM128.87 590.87H168.13V630.13H128.87V590.87Z" fill="#91929D" fill-opacity="0.95"/>
<path d="M18 164H118V64H18V164ZM113.652 159.652H22.3478V68.3478H113.652V159.652Z" fill="#9FA2C1" fill-opacity="0.5"/>
<path d="M602.001 338H647.001V293H602.001V338ZM645.044 336.043H603.957V294.957H645.044V336.043Z" fill="#9FA2C1" fill-opacity="0.75"/>
<path d="M520 24H544V0H520V24ZM542.957 22.9565H521.043V1.04348H542.957V22.9565Z" fill="#9FA2C1" fill-opacity="0.8"/>
<path d="M52.8349 971.396H61.962L66.3036 935.652H52.8334L52.8349 971.396Z" fill="#FFB8B8"/>
<path d="M68.4812 968.747H50.8793V980H79.5637C79.5637 977.016 78.3961 974.154 76.3177 972.043C74.2393 969.933 71.4204 968.748 68.4812 968.747Z" fill="#2F2E41"/>
<path d="M7.42333 971.396H16.5503L20.892 935.652H7.42188L7.42333 971.396Z" fill="#FFB8B8"/>
<path d="M23.0695 968.747H5.46766V980H34.152C34.152 977.016 32.9844 974.154 30.906 972.043C28.8277 969.933 26.0088 968.748 23.0695 968.747Z" fill="#2F2E41"/>
<path d="M98.6197 843.567C99.2763 842.585 99.7129 841.469 99.8985 840.297C100.084 839.125 100.014 837.926 99.6943 836.784C99.3742 835.642 98.8114 834.586 98.0456 833.689C97.2798 832.792 96.3295 832.076 95.2619 831.592L64.2362 744.768L48.9696 753.227L84.3942 836.2C83.7126 838.075 83.7321 840.138 84.449 842C85.1659 843.861 86.5303 845.391 88.2838 846.299C90.0373 847.207 92.058 847.431 93.9629 846.927C95.8679 846.424 97.5248 845.228 98.6197 843.567Z" fill="#FFB8B8"/>
<path d="M12.0853 859.882C13.0996 859.292 13.9741 858.483 14.6471 857.512C15.3201 856.541 15.7753 855.433 15.9806 854.264C16.186 853.095 16.1364 851.895 15.8355 850.748C15.5346 849.601 14.9897 848.535 14.2391 847.625L23.8505 755.779L6.47659 756.585L2.4821 846.927C1.05979 848.309 0.186106 850.172 0.0265408 852.164C-0.133026 854.156 0.432648 856.139 1.61637 857.736C2.80009 859.332 4.51961 860.433 6.4491 860.829C8.3786 861.224 10.384 860.888 12.0853 859.882V859.882Z" fill="#FFB8B8"/>
<path d="M39.8019 728.686C29.7036 728.686 21.5173 720.374 21.5173 710.121C21.5173 699.868 29.7036 691.556 39.8019 691.556C49.9001 691.556 58.0864 699.868 58.0864 710.121C58.0864 720.374 49.9001 728.686 39.8019 728.686Z" fill="#FFB8B8"/>
<path d="M12.202 838.994H67.3265L67.2601 838.558C67.1611 837.907 57.4357 773.222 64.6086 752.06C65.3283 749.98 65.265 747.704 64.4309 745.669C63.5967 743.633 62.0506 741.984 60.0902 741.036H60.09C49.8376 736.134 30.1574 730.098 13.5467 744.747C11.1024 746.938 9.1937 749.677 7.97148 752.746C6.74925 755.815 6.24705 759.131 6.5046 762.432L12.202 838.994Z" fill="#CCCCCC"/>
<path d="M56.7392 782.781L81.5568 777.669L69.9238 749.679C69.2277 746.968 67.5009 744.648 65.1224 743.228C62.7438 741.808 59.9075 741.404 57.2358 742.104C54.5641 742.805 52.275 744.552 50.8706 746.964C49.4663 749.376 49.0615 752.254 49.7448 754.969L56.7392 782.781Z" fill="#CCCCCC"/>
<path d="M24.9538 792.273L26.4458 757.547C27.5772 751.02 23.8968 744.849 18.2365 743.84C12.5745 742.835 7.04603 747.362 5.90954 753.938L0.301544 786.386L24.9538 792.273Z" fill="#CCCCCC"/>
<path d="M14.0359 834.837C5.1661 869.136 4.19845 912.744 6.59139 960.311L18.5027 958.799L40.0918 868.095L52.0031 960.311L65.4033 959.555C69.4065 909.645 73.3044 866.798 66.8922 838.616L14.0359 834.837Z" fill="#2F2E41"/>
<path d="M27.7539 724.468C31.165 728.158 37.4998 726.177 37.9442 721.137C37.9791 720.746 37.9766 720.352 37.9367 719.961C37.7072 717.729 36.4369 715.702 36.7412 713.345C36.8101 712.758 37.0254 712.199 37.3666 711.72C40.0848 708.025 46.4656 713.373 49.0309 710.028C50.6039 707.976 48.7549 704.746 49.962 702.454C51.5551 699.427 56.274 700.92 59.2333 699.263C62.5258 697.419 62.3289 692.29 60.1615 689.17C57.5183 685.365 52.8839 683.335 48.3073 683.042C43.7307 682.75 39.1855 684.006 34.9128 685.697C30.0582 687.618 25.2441 690.272 22.2566 694.606C18.6235 699.877 18.2739 706.963 20.0909 713.127C21.1962 716.876 24.9684 721.456 27.7539 724.468Z" fill="#2F2E41"/>
</svg>
